<svg width="494" height="427" viewBox="0 0 494 427" fill="none" xmlns="http://www.w3.org/2000/svg">
<path fill-rule="evenodd" clip-rule="evenodd" d="M0.5 424.5L197.5 0.5H493.5V27.5H338.5L316.5 197.5H489.5L489.399 224.5H313.5V225.5L290.46 399.5H493.5V426.5H230.5L255.5 224.5H154.5V225.5L57.5 426.5H0.5V424.5ZM259.279 197.5H166.5L247.5 28.5V27.5H280.5V28.5L259.279 197.5Z" fill="black"/>
<path fill-rule="evenodd" clip-rule="evenodd" d="M0.5 424.5L197.5 0.5H493.5V27.5H338.5L316.5 197.5H489.5L489.399 224.5H313.5V225.5L290.46 399.5H493.5V426.5H230.5L255.5 224.5H154.5V225.5L57.5 426.5H0.5V424.5ZM259.279 197.5H166.5L247.5 28.5V27.5H280.5V28.5L259.279 197.5Z" stroke="black"/>
<path d="M166.5 197.5H259.279L280.5 28.5V27.5H247.5V28.5L166.5 197.5Z" stroke="black"/>
</svg>
